<svg height="495pt" viewBox="0 0 495 495.85201" width="495pt" xmlns="http://www.w3.org/2000/svg"><path d="m394.390625 214.210938c11.730469 50.375-3.371094 103.238281-39.945313 139.8125-36.574218 36.578124-89.4375 51.679687-139.8125 39.953124zm-194.136719 194.136718c15.765625 4.808594 32.148438 7.28125 48.628906 7.34375 52.902344-.171875 102.617188-25.316406 134.105469-67.828125s41.050781-97.394531 25.796875-148.050781l14.125-14.125c24.03125 67.4375 7.085938 142.683594-43.535156 193.308594-50.625 50.625-125.871094 67.574218-193.308594 43.542968zm282.234375-115.484375c-9.1875 7.210938-12.601562 19.570313-8.414062 30.472657 3.652343 9.097656 3.332031 19.308593-.882813 28.160156-4.222656 8.972656-11.90625 15.847656-21.289062 19.050781-11.023438 3.742187-18.371094 14.164063-18.195313 25.800781.203125 9.730469-3.523437 19.128906-10.332031 26.082032-6.808594 6.949218-16.128906 10.863281-25.859375 10.863281h-1.183594c-11.453125.015625-21.632812 7.308593-25.328125 18.148437-3.1875 9.398438-10.0625 17.097656-19.039062 21.328125-8.878906 4.234375-19.125 4.554688-28.25.882813-10.863282-4.140625-23.15625-.734375-30.339844 8.402344-6.125 7.75-15.136719 12.671874-24.964844 13.640624-9.691406.917969-19.328125-2.21875-26.625-8.660156-4.785156-4.320312-11.011718-6.699218-17.460937-6.671875-4.953125 0-9.808594 1.375-14.027344 3.96875-8.304687 5.253907-18.425781 6.816407-27.929687 4.308594-9.429688-2.386719-17.40625-8.664063-21.945313-17.265625-2.640625-4.929688-6.804687-8.875-11.871094-11.246094l23.859375-23.933594c75.496094 30.46875 161.894532 12.875 219.460938-44.695312 57.566406-57.566406 75.160156-143.964844 44.6875-219.460938l23.957031-23.957031c2.367187 5.070313 6.3125 9.230469 11.246094 11.863281 8.601562 4.550782 14.871093 12.527344 17.269531 21.957032 2.507812 9.523437.933594 19.664062-4.34375 27.980468-6.144531 9.882813-5.066406 22.628907 2.648438 31.339844 6.46875 7.304688 9.632812 16.957032 8.746093 26.675782-.953125 9.824218-5.859375 18.835937-13.59375 24.964843zm0 0"/><path d="m102.265625 281.617188c-11.734375-50.378907 3.371094-103.242188 39.945313-139.820313 36.578124-36.574219 89.441406-51.679687 139.820312-39.945313zm194.15625-194.164063c-59.035156-17.824219-123.089844-1.738281-166.691406 41.867187-43.605469 43.605469-59.691407 107.660157-41.863281 166.695313l-14.167969 14.167969c-24.066407-67.453125-7.125-142.734375 43.515625-193.378906 50.640625-50.640626 125.921875-67.582032 193.375-43.519532zm-282.253906 115.511719c9.1875-7.210938 12.601562-19.570313 8.410156-30.472656-3.648437-9.101563-3.328125-19.308594.882813-28.160157 4.226562-8.972656 11.910156-15.847656 21.292968-19.050781 11.023438-3.742188 18.371094-14.164062 18.195313-25.804688-.203125-9.726562 3.523437-19.128906 10.332031-26.078124 6.808594-6.949219 16.128906-10.867188 25.859375-10.863282h1.183594c11.453125-.015625 21.632812-7.308594 25.328125-18.152344 3.199218-9.398437 10.085937-17.089843 19.074218-21.308593 8.878907-4.234375 19.125-4.554688 28.25-.882813 10.855469 4.140625 23.144532.738282 30.332032-8.394531 6.125-7.746094 15.136718-12.671875 24.964844-13.636719 9.6875-.925781 19.328124 2.210938 26.621093 8.65625 8.734375 7.785156 21.554688 8.886719 31.488281 2.703125 8.308594-5.25 18.425782-6.808593 27.929688-4.308593 9.433594 2.390624 17.40625 8.664062 21.945312 17.265624 2.640626 4.933594 6.808594 8.878907 11.875 11.25l-23.941406 23.957032c-75.492187-30.5-161.90625-12.914063-219.472656 44.664062-57.566406 57.582032-75.136719 143.996094-44.621094 219.484375l-23.957031 23.914063c-2.367187-5.070313-6.3125-9.234375-11.246094-11.867188-8.601562-4.546875-14.875-12.523437-17.269531-21.953125-2.507812-9.527343-.933594-19.664062 4.34375-27.984375 6.144531-9.882812 5.066406-22.625-2.648438-31.335937-6.46875-7.304688-9.636718-16.960938-8.746093-26.675781.953125-9.824219 5.859375-18.835938 13.59375-24.964844zm0 0"/><path d="m113.582031 436.964844c2.882813 1.390625 6.292969 1.113281 8.914063-.730469 2.617187-1.839844 4.035156-4.953125 3.703125-8.136719s-2.363281-5.9375-5.304688-7.199218l-68.652343-31.207032c-3.347657-1.515625-7.285157-.800781-9.886719 1.796875-2.597657 2.597657-3.316407 6.535157-1.800781 9.882813l31.222656 68.660156c1.242187 2.96875 4 5.027344 7.199218 5.371094 3.199219.34375 6.332032-1.078125 8.175782-3.714844s2.109375-6.066406.691406-8.953125l-5.296875-11.601563 19.417969-19.421874zm-38.839843-2.992188-8.394532-18.476562 18.46875 8.394531zm0 0"/><path d="m142.210938 412.796875c3.570312 0 6.792968-2.148437 8.160156-5.449219 1.371094-3.296875.617187-7.09375-1.910156-9.621094l-18.730469-18.730468 6.25-6.242188c10.339843-10.347656 10.335937-27.117187-.011719-37.457031-10.34375-10.339844-27.113281-10.335937-37.453125.007813l-6.242187 6.242187c-3.3125 3.3125-5.171876 7.804687-5.171876 12.488281s1.859376 9.175782 5.171876 12.484375l18.625 18.617188.097656.109375 24.972656 24.972656c1.65625 1.652344 3.902344 2.578125 6.242188 2.578125zm-18.722657-52.527344-6.25 6.242188-12.480469-12.480469 6.238282-6.242188c2.230468-2.230468 5.480468-3.105468 8.527344-2.289062 3.046874.816406 5.429687 3.195312 6.246093 6.242188.816407 3.046874-.050781 6.296874-2.28125 8.527343zm0 0"/><path d="m192.148438 362.855469c3.570312 0 6.789062-2.148438 8.15625-5.449219 1.363281-3.296875.609374-7.09375-1.914063-9.617188l-18.722656-18.734374 6.238281-6.238282c10.039062-10.390625 9.894531-26.910156-.320312-37.125-10.214844-10.214844-26.734376-10.359375-37.125-.324218l-6.25 6.242187c-6.890626 6.894531-6.890626 18.070313 0 24.964844l43.695312 43.695312c1.65625 1.65625 3.902344 2.585938 6.242188 2.585938zm-18.722657-52.523438-6.242187 6.242188-12.480469-12.480469 6.242187-6.242188c3.460938-3.347656 8.96875-3.296874 12.371094.105469 3.40625 3.40625 3.453125 8.914063.109375 12.375zm0 0"/><path d="m275.878906 279.128906c0-4.875-3.953125-8.828125-8.828125-8.828125h-28.925781c8.523438-11.066406 6.984375-26.847656-3.511719-36.0625-10.496093-9.214843-26.347656-8.691406-36.214843 1.191407l-6.242188 6.242187c-6.890625 6.894531-6.890625 18.070313 0 24.964844l43.699219 43.695312c3.476562 3.261719 8.914062 3.171875 12.28125-.199219 3.371093-3.371093 3.453125-8.808593.191406-12.28125l-9.894531-9.894531h28.617187c4.875 0 8.828125-3.953125 8.828125-8.828125zm-52.515625-18.734375-6.242187 6.25-12.488282-12.488281 6.238282-6.242188c2.230468-2.230468 5.480468-3.105468 8.527344-2.289062 3.050781.816406 5.429687 3.195312 6.246093 6.242188.820313 3.046874-.050781 6.296874-2.28125 8.527343zm0 0"/><path d="m310.746094 247.914062c10.316406-10.355468 10.316406-27.101562 0-37.457031l-24.960938-24.953125c-10.480468-10.011718-26.980468-10.011718-37.457031 0-10.339844 10.339844-10.339844 27.105469 0 37.445313l24.964844 24.964843c4.964843 4.96875 11.703125 7.757813 18.726562 7.757813 7.023438 0 13.761719-2.789063 18.726563-7.757813zm-49.9375-37.457031c-2.292969-2.214843-3.214844-5.496093-2.40625-8.582031.808594-3.089844 3.21875-5.5 6.304687-6.304688 3.085938-.808593 6.367188.109376 8.585938 2.40625l24.964843 24.964844c2.230469 2.226563 3.101563 5.480469 2.285157 8.527344-.8125 3.046875-3.191407 5.425781-6.238281 6.246094-3.046876.816406-6.300782-.054688-8.53125-2.285156zm0 0"/><path d="m354.445312 200.5625c3.175782-.003906 6.109376-1.714844 7.675782-4.480469 1.5625-2.765625 1.523437-6.160156-.113282-8.882812l-37.445312-62.429688c-2.511719-4.179687-7.933594-5.535156-12.117188-3.023437-4.179687 2.511718-5.53125 7.933594-3.023437 12.113281l19.238281 32.144531-32.132812-19.289062c-4.179688-2.507813-9.605469-1.152344-12.113282 3.027344-2.507812 4.179687-1.152343 9.601562 3.027344 12.109374l62.414063 37.457032c1.386719.828125 2.972656 1.261718 4.589843 1.253906zm0 0"/><path d="m391.898438 163.117188c2.3125 0 4.53125-.910157 6.179687-2.527344l25.222656-24.714844c3.480469-3.414062 3.539063-9.003906.125-12.488281-3.410156-3.484375-9-3.539063-12.484375-.128907l-18.980468 18.59375-12.550782-12.546874 12.488282-12.480469c2.296874-2.21875 3.214843-5.5 2.410156-8.585938-.808594-3.085937-3.21875-5.496093-6.304688-6.304687-3.085937-.808594-6.371094.113281-8.585937 2.40625l-12.492188 12.484375-12.480469-12.492188 18.722657-18.722656c3.34375-3.464844 3.296875-8.96875-.109375-12.375-3.402344-3.40625-8.910156-3.453125-12.375-.105469l-24.960938 24.972656c-3.449218 3.445313-3.449218 9.035157 0 12.480469l24.960938 24.964844 24.976562 24.972656c1.652344 1.660157 3.898438 2.59375 6.238282 2.597657zm0 0"/><path d="m441.828125 113.167969c2.339844 0 4.585937-.929688 6.242187-2.585938l6.242188-6.242187c13.78125-13.785156 13.78125-36.136719 0-49.925782l-12.484375-12.484374c-13.789063-13.785157-36.140625-13.785157-49.929687 0l-6.238282 6.242187c-3.449218 3.445313-3.449218 9.035156 0 12.480469l49.925782 49.929687c1.65625 1.65625 3.902343 2.585938 6.242187 2.585938zm-12.480469-58.753907 12.480469 12.480469c6.894531 6.894531 6.894531 18.070313 0 24.964844l-37.445313-37.445313c6.988282-6.664062 17.976563-6.664062 24.964844 0zm0 0"/></svg>